<?xml version="1.0" encoding="utf-8"?>
<!-- Generator: Adobe Illustrator 24.3.0, SVG Export Plug-In . SVG Version: 6.00 Build 0)  -->
<svg version="1.1" id="Layer_1" xmlns="http://www.w3.org/2000/svg" xmlns:xlink="http://www.w3.org/1999/xlink" x="0px" y="0px"
	 viewBox="0 0 487.8 77.5" style="enable-background:new 0 0 487.8 77.5;" xml:space="preserve">
<g>
	<path d="M2.1,77.5c-0.6,0-1.1-0.2-1.5-0.6C0.2,76.6,0,76,0,75.4V20.1c0-0.6,0.2-1.1,0.6-1.5C1,18.2,1.5,18,2.1,18h9.5
		c0.6,0,1.1,0.2,1.5,0.6c0.4,0.4,0.6,0.9,0.6,1.5v3.1c1.3-1.7,3-3.2,5.1-4.3c2.1-1.1,4.7-1.7,7.9-1.7c2.8,0,5.3,0.4,7.4,1.3
		c2.1,0.9,3.9,2.1,5.4,3.8C41,24,42.2,26,43,28.4c0.9,2.4,1.4,5.2,1.5,8.3c0.1,1.1,0.1,2.2,0.1,3.1c0,1,0,2-0.1,3.1
		c-0.1,3-0.6,5.7-1.4,8.1c-0.8,2.4-2,4.4-3.5,6.1c-1.5,1.7-3.3,3-5.5,3.9c-2.2,0.9-4.6,1.4-7.4,1.4c-2.7,0-5.1-0.5-7.2-1.5
		c-2-1-3.7-2.4-5.1-4.2v18.6c0,0.6-0.2,1.1-0.6,1.5c-0.4,0.4-0.9,0.6-1.5,0.6H2.1z M22.1,51.2c1.9,0,3.4-0.4,4.4-1.2
		c1.1-0.8,1.8-1.8,2.3-3.2c0.5-1.3,0.8-2.8,0.9-4.4c0.1-1.7,0.1-3.5,0-5.2c-0.1-1.6-0.4-3.1-0.9-4.4c-0.5-1.3-1.2-2.4-2.3-3.2
		c-1.1-0.8-2.5-1.2-4.4-1.2c-1.8,0-3.3,0.4-4.4,1.2c-1.1,0.8-1.9,1.9-2.4,3.1c-0.5,1.3-0.8,2.7-0.8,4.2c-0.1,1.1-0.1,2.1-0.1,3.1
		c0,1,0,2.1,0.1,3.2c0.1,1.4,0.4,2.7,0.9,3.9c0.6,1.2,1.4,2.2,2.5,2.9C19,50.8,20.4,51.2,22.1,51.2z"/>
	<path d="M73,62.4c-6.6,0-11.8-1.8-15.8-5.4c-3.9-3.6-6-8.9-6.1-15.9c0-0.4,0-0.9,0-1.5c0-0.6,0-1.1,0-1.4c0.2-4.4,1.2-8.2,3-11.4
		c1.8-3.2,4.3-5.6,7.5-7.2c3.2-1.6,7-2.5,11.3-2.5c4.9,0,9,1,12.2,2.9c3.2,2,5.6,4.6,7.3,8c1.6,3.4,2.4,7.2,2.4,11.5v2
		c0,0.6-0.2,1.1-0.6,1.5s-0.9,0.6-1.5,0.6H65.9c0,0.1,0,0.1,0,0.2c0,0.1,0,0.2,0,0.3c0.1,1.6,0.3,3.1,0.8,4.4
		c0.5,1.3,1.3,2.4,2.3,3.2c1.1,0.8,2.3,1.2,3.9,1.2c1.1,0,2.1-0.2,2.8-0.5c0.8-0.4,1.4-0.8,1.9-1.3c0.5-0.5,0.9-0.9,1.2-1.2
		c0.5-0.6,0.9-0.9,1.2-1.1c0.3-0.1,0.8-0.2,1.5-0.2h10.4c0.6,0,1,0.2,1.4,0.5c0.4,0.3,0.5,0.7,0.5,1.3c-0.1,1-0.5,2.1-1.4,3.4
		c-0.9,1.3-2.2,2.7-3.9,4c-1.7,1.3-3.8,2.4-6.4,3.2C79.4,62,76.4,62.4,73,62.4z M65.9,35.4H80v-0.2c0-1.8-0.3-3.4-0.8-4.7
		c-0.5-1.3-1.3-2.4-2.4-3.1c-1.1-0.7-2.4-1.1-3.9-1.1c-1.5,0-2.8,0.4-3.8,1.1c-1,0.7-1.8,1.8-2.4,3.1c-0.6,1.3-0.8,2.9-0.8,4.7V35.4
		z"/>
	<path d="M118.9,62.4c-2.7,0-5.1-0.4-7.3-1.3c-2.2-0.9-4-2.2-5.5-3.9c-1.5-1.7-2.7-3.8-3.6-6.2c-0.8-2.4-1.3-5.2-1.4-8.3
		c-0.1-1.1-0.1-2.1-0.1-3c0-0.9,0-1.8,0.1-2.9c0.1-3,0.6-5.7,1.4-8.1c0.8-2.4,2-4.5,3.5-6.2c1.5-1.7,3.4-3.1,5.5-4
		c2.2-0.9,4.6-1.4,7.3-1.4c2.8,0,5.2,0.5,7.2,1.4c2,0.9,3.7,2.1,5.1,3.6V4.2c0-0.6,0.2-1.1,0.6-1.5c0.4-0.4,0.9-0.6,1.5-0.6h10.2
		c0.6,0,1,0.2,1.5,0.6c0.4,0.4,0.6,0.9,0.6,1.5v55.3c0,0.6-0.2,1.1-0.6,1.5c-0.4,0.4-0.9,0.6-1.5,0.6h-9.5c-0.6,0-1.1-0.2-1.5-0.6
		c-0.4-0.4-0.6-0.9-0.6-1.5v-2.7c-1.3,1.6-3.1,3-5.2,4C124.7,61.9,122.1,62.4,118.9,62.4z M123.5,51.2c1.9,0,3.4-0.4,4.5-1.2
		c1.1-0.8,1.9-1.9,2.4-3.1c0.5-1.3,0.8-2.7,0.9-4.2c0.1-1.1,0.1-2.2,0.1-3.2c0-1,0-2-0.1-3.1c-0.1-1.4-0.4-2.7-0.9-3.9
		c-0.6-1.2-1.4-2.2-2.5-2.9c-1.1-0.8-2.6-1.1-4.4-1.1c-1.8,0-3.3,0.4-4.4,1.2c-1.1,0.8-1.9,1.8-2.3,3.2c-0.5,1.3-0.7,2.8-0.8,4.4
		c-0.2,1.7-0.2,3.5,0,5.2c0.1,1.6,0.4,3.1,0.8,4.4c0.4,1.3,1.2,2.4,2.3,3.2C120.1,50.8,121.6,51.2,123.5,51.2z"/>
	<path d="M157.6,61.6c-0.6,0-1.1-0.2-1.5-0.6c-0.4-0.4-0.6-0.9-0.6-1.5V20.1c0-0.6,0.2-1,0.6-1.5c0.4-0.4,0.9-0.6,1.5-0.6h9.6
		c0.6,0,1.1,0.2,1.5,0.6c0.4,0.4,0.6,0.9,0.6,1.5v3.4c1.5-1.7,3.3-3.1,5.4-4c2.1-0.9,4.5-1.4,7.1-1.4h3.7c0.6,0,1,0.2,1.5,0.6
		c0.4,0.4,0.6,0.9,0.6,1.5v8.6c0,0.6-0.2,1-0.6,1.5c-0.4,0.4-0.9,0.6-1.5,0.6h-8.1c-2.3,0-4.1,0.6-5.3,1.9c-1.3,1.3-1.9,3-1.9,5.3
		v21.5c0,0.6-0.2,1.1-0.6,1.5c-0.4,0.4-0.9,0.6-1.5,0.6H157.6z"/>
	<path d="M213.8,62.4c-4.7,0-8.6-0.8-11.9-2.3c-3.2-1.5-5.7-3.7-7.4-6.5c-1.7-2.8-2.7-6.2-2.9-10.1c-0.1-1.1-0.1-2.4-0.1-3.8
		c0-1.4,0-2.7,0.1-3.7c0.2-4,1.2-7.3,3-10.1c1.8-2.8,4.3-4.9,7.5-6.5c3.2-1.5,7.1-2.3,11.6-2.3c4.6,0,8.5,0.8,11.7,2.3
		c3.2,1.5,5.7,3.7,7.5,6.5c1.8,2.8,2.8,6.2,3,10.1c0.1,1.1,0.1,2.3,0.1,3.7c0,1.4,0,2.7-0.1,3.8c-0.2,3.9-1.2,7.3-2.9,10.1
		c-1.7,2.8-4.2,5-7.4,6.5C222.5,61.7,218.6,62.4,213.8,62.4z M213.8,52.2c2.5,0,4.3-0.8,5.5-2.3c1.1-1.5,1.8-3.8,2-6.8
		c0.1-0.8,0.1-2,0.1-3.4c0-1.4,0-2.5-0.1-3.4c-0.2-3-0.8-5.2-2-6.7c-1.1-1.5-3-2.3-5.5-2.3c-2.5,0-4.3,0.8-5.4,2.3
		c-1.2,1.5-1.8,3.8-1.9,6.7c-0.1,0.8-0.1,2-0.1,3.4c0,1.4,0,2.5,0.1,3.4c0.1,3,0.8,5.3,1.9,6.8C209.5,51.5,211.3,52.2,213.8,52.2z"
		/>
	<path d="M275.6,61.6c-0.8,0-1.5-0.2-1.8-0.6c-0.4-0.4-0.7-0.9-1-1.5l-15.8-38.9c-0.1-0.2-0.2-0.5-0.2-0.8c0-0.5,0.2-0.9,0.5-1.3
		c0.4-0.4,0.8-0.5,1.4-0.5h9.5c0.7,0,1.3,0.2,1.7,0.6c0.4,0.4,0.6,0.8,0.8,1.2l9.5,25.7l9.6-25.7c0.1-0.4,0.4-0.8,0.8-1.2
		c0.4-0.4,0.9-0.6,1.7-0.6h9.5c0.5,0,0.9,0.2,1.3,0.5c0.4,0.4,0.6,0.8,0.6,1.3c0,0.3-0.1,0.5-0.2,0.8l-15.8,38.9
		c-0.2,0.6-0.5,1-1,1.5c-0.4,0.4-1.1,0.6-2,0.6H275.6z"/>
	<path d="M312,11.7c-0.6,0-1.1-0.2-1.5-0.6c-0.4-0.4-0.6-0.9-0.6-1.5V2.2c0-0.6,0.2-1.1,0.6-1.6c0.4-0.4,0.9-0.6,1.5-0.6h10
		c0.6,0,1.1,0.2,1.6,0.6c0.4,0.4,0.6,0.9,0.6,1.6v7.5c0,0.6-0.2,1.1-0.6,1.5c-0.4,0.4-0.9,0.6-1.6,0.6H312z M312,61.6
		c-0.6,0-1.1-0.2-1.5-0.6c-0.4-0.4-0.6-0.9-0.6-1.5V20.1c0-0.6,0.2-1.1,0.6-1.5c0.4-0.4,0.9-0.6,1.5-0.6h9.9c0.6,0,1.1,0.2,1.5,0.6
		c0.4,0.4,0.6,0.9,0.6,1.5v39.4c0,0.6-0.2,1.1-0.6,1.5c-0.4,0.4-0.9,0.6-1.5,0.6H312z"/>
	<path d="M354.4,62.4c-6.6,0-11.8-1.8-15.8-5.4c-3.9-3.6-6-8.9-6.1-15.9c0-0.4,0-0.9,0-1.5c0-0.6,0-1.1,0-1.4
		c0.2-4.4,1.2-8.2,3-11.4c1.8-3.2,4.3-5.6,7.5-7.2c3.2-1.6,7-2.5,11.3-2.5c4.9,0,9,1,12.2,2.9c3.2,2,5.6,4.6,7.3,8
		c1.6,3.4,2.4,7.2,2.4,11.5v2c0,0.6-0.2,1.1-0.6,1.5c-0.4,0.4-0.9,0.6-1.5,0.6h-26.8c0,0.1,0,0.1,0,0.2c0,0.1,0,0.2,0,0.3
		c0.1,1.6,0.3,3.1,0.8,4.4c0.5,1.3,1.3,2.4,2.3,3.2c1.1,0.8,2.3,1.2,3.9,1.2c1.1,0,2.1-0.2,2.8-0.5c0.8-0.4,1.4-0.8,1.9-1.3
		c0.5-0.5,0.9-0.9,1.2-1.2c0.5-0.6,0.9-0.9,1.2-1.1c0.3-0.1,0.8-0.2,1.5-0.2h10.4c0.6,0,1,0.2,1.4,0.5c0.4,0.3,0.5,0.7,0.5,1.3
		c-0.1,1-0.5,2.1-1.4,3.4c-0.9,1.3-2.2,2.7-3.9,4s-3.8,2.4-6.4,3.2C360.8,62,357.8,62.4,354.4,62.4z M347.2,35.4h14.2v-0.2
		c0-1.8-0.3-3.4-0.8-4.7c-0.5-1.3-1.3-2.4-2.4-3.1c-1.1-0.7-2.4-1.1-3.9-1.1c-1.5,0-2.8,0.4-3.8,1.1c-1,0.7-1.8,1.8-2.4,3.1
		c-0.6,1.3-0.8,2.9-0.8,4.7V35.4z"/>
	<path d="M386,11.7c-0.6,0-1.1-0.2-1.5-0.6c-0.4-0.4-0.6-0.9-0.6-1.5V2.2c0-0.6,0.2-1.1,0.6-1.6c0.4-0.4,0.9-0.6,1.5-0.6h10
		c0.6,0,1.1,0.2,1.6,0.6c0.4,0.4,0.6,0.9,0.6,1.6v7.5c0,0.6-0.2,1.1-0.6,1.5c-0.4,0.4-0.9,0.6-1.6,0.6H386z M386.1,61.6
		c-0.6,0-1.1-0.2-1.5-0.6c-0.4-0.4-0.6-0.9-0.6-1.5V20.1c0-0.6,0.2-1.1,0.6-1.5c0.4-0.4,0.9-0.6,1.5-0.6h9.9c0.6,0,1.1,0.2,1.5,0.6
		c0.4,0.4,0.6,0.9,0.6,1.5v39.4c0,0.6-0.2,1.1-0.6,1.5c-0.4,0.4-0.9,0.6-1.5,0.6H386.1z"/>
	<path d="M412.6,61.6c-0.6,0-1.1-0.2-1.5-0.6c-0.4-0.4-0.6-0.9-0.6-1.5V20.1c0-0.6,0.2-1,0.6-1.5c0.4-0.4,0.9-0.6,1.5-0.6h9.6
		c0.6,0,1.1,0.2,1.5,0.6c0.4,0.4,0.6,0.9,0.6,1.5v3.4c1.5-1.7,3.3-3.1,5.4-4c2.1-0.9,4.5-1.4,7.1-1.4h3.7c0.6,0,1,0.2,1.5,0.6
		c0.4,0.4,0.6,0.9,0.6,1.5v8.6c0,0.6-0.2,1-0.6,1.5c-0.4,0.4-0.9,0.6-1.5,0.6h-8.1c-2.3,0-4.1,0.6-5.3,1.9c-1.3,1.3-1.9,3-1.9,5.3
		v21.5c0,0.6-0.2,1.1-0.6,1.5c-0.4,0.4-0.9,0.6-1.5,0.6H412.6z"/>
	<path d="M460.9,62.4c-3,0-5.7-0.6-8.1-1.7c-2.4-1.1-4.3-2.7-5.7-4.7c-1.4-2-2.1-4.2-2.1-6.6c0-4,1.6-7.1,4.9-9.4
		c3.2-2.3,7.5-3.9,12.9-4.7l10.5-1.6v-1.2c0-2-0.4-3.5-1.3-4.6c-0.8-1.1-2.4-1.6-4.6-1.6c-1.6,0-2.8,0.3-3.8,0.9
		c-1,0.6-1.7,1.5-2.3,2.5c-0.5,0.7-1.2,1.1-2.1,1.1h-9.4c-0.6,0-1.1-0.2-1.4-0.5c-0.3-0.4-0.5-0.8-0.4-1.3c0-1,0.4-2.2,1.1-3.5
		c0.8-1.3,1.9-2.6,3.5-3.9c1.6-1.3,3.6-2.3,6-3.2c2.5-0.8,5.4-1.3,8.9-1.3c3.6,0,6.7,0.4,9.3,1.3c2.6,0.8,4.7,2,6.2,3.5
		c1.6,1.5,2.8,3.3,3.6,5.3c0.8,2,1.2,4.3,1.2,6.7v25.5c0,0.6-0.2,1.1-0.6,1.5c-0.4,0.4-0.9,0.6-1.5,0.6H476c-0.6,0-1.1-0.2-1.5-0.6
		c-0.4-0.4-0.6-0.9-0.6-1.5v-2.9c-0.7,1.1-1.7,2-2.9,2.9c-1.2,0.9-2.7,1.6-4.3,2.1C465,62.2,463.1,62.4,460.9,62.4z M464.8,52.9
		c1.6,0,3.1-0.3,4.4-1c1.3-0.7,2.3-1.8,3.1-3.3c0.8-1.5,1.1-3.3,1.1-5.6v-1.2l-7.1,1.3c-2.6,0.4-4.5,1.1-5.7,2.1
		c-1.2,0.9-1.8,2-1.8,3.2c0,1,0.3,1.8,0.8,2.4c0.6,0.7,1.3,1.2,2.2,1.5C462.7,52.7,463.7,52.9,464.8,52.9z"/>
</g>
</svg>
